<svg xmlns="http://www.w3.org/2000/svg" xmlns:xlink="http://www.w3.org/1999/xlink" viewBox="0 0 77.64 53.93"><defs><style>.cls-1{fill:#14023b;}.cls-2{clip-path:url(#clip-path);}</style><clipPath id="clip-path" transform="translate(8.44 8.44)"><path class="cls-1" d="M45.94,26.49,31.77,14.8l-2.85,2.66A6.78,6.78,0,0,1,19.26,17a7,7,0,0,1,.42-9.81L27.45,0h-8a3,3,0,0,0-2.14.91l-5.2,5.26v21.6h1.74l8.59,7.9a6,6,0,0,0,8.55-.9l0,0,1.7,1.5a3.48,3.48,0,0,0,5-.53l3-3.72.51.43A3,3,0,0,0,45.48,32l.9-1.13A3.13,3.13,0,0,0,45.94,26.49ZM4.56,24.7A1.55,1.55,0,1,1,3,26.24,1.54,1.54,0,0,1,4.56,24.7ZM0,30.86H6.08a3.05,3.05,0,0,0,3-3.08V6.19H0Zm56.21-3.07a1.55,1.55,0,1,1,1.51-1.55A1.54,1.54,0,0,1,56.21,27.79ZM51.65,6.19v21.6a3.06,3.06,0,0,0,3,3.08h6.07V6.19ZM41.27,0H33.12a3,3,0,0,0-2.06.81L21.73,9.49l0,0a3.89,3.89,0,0,0-.2,5.4,3.92,3.92,0,0,0,5.33.26l0,0,7.58-7.06a1.51,1.51,0,0,1,2.15.1,1.56,1.56,0,0,1-.1,2.18L34,12.69l13.82,11.4a6.64,6.64,0,0,1,.75.75V6.17L43.42.91A3,3,0,0,0,41.27,0Z"/></clipPath></defs><g id="Capa_2" data-name="Capa 2"><g id="Capa_1-2" data-name="Capa 1"><path class="cls-1" d="M45.94,26.49,31.77,14.8l-2.85,2.66A6.78,6.78,0,0,1,19.26,17a7,7,0,0,1,.42-9.81L27.45,0h-8a3,3,0,0,0-2.14.91l-5.2,5.26v21.6h1.74l8.59,7.9a6,6,0,0,0,8.55-.9l0,0,1.7,1.5a3.48,3.48,0,0,0,5-.53l3-3.72.51.43A3,3,0,0,0,45.48,32l.9-1.13A3.13,3.13,0,0,0,45.94,26.49ZM4.56,24.7A1.55,1.55,0,1,1,3,26.24,1.54,1.54,0,0,1,4.56,24.7ZM0,30.86H6.08a3.05,3.05,0,0,0,3-3.08V6.19H0Zm56.21-3.07a1.55,1.55,0,1,1,1.51-1.55A1.54,1.54,0,0,1,56.21,27.79ZM51.65,6.19v21.6a3.06,3.06,0,0,0,3,3.08h6.07V6.19ZM41.27,0H33.12a3,3,0,0,0-2.06.81L21.73,9.49l0,0a3.89,3.89,0,0,0-.2,5.4,3.92,3.92,0,0,0,5.33.26l0,0,7.58-7.06a1.51,1.51,0,0,1,2.15.1,1.56,1.56,0,0,1-.1,2.18L34,12.69l13.82,11.4a6.64,6.64,0,0,1,.75.75V6.17L43.42.91A3,3,0,0,0,41.27,0Z" transform="translate(8.44 8.44)"/><g class="cls-2"><rect class="cls-1" width="77.64" height="53.93"/></g></g></g></svg>