<svg xmlns="http://www.w3.org/2000/svg" viewBox="0 0 59.68 68.21"><defs><style>.cls-1{fill:#14023b;}</style></defs><g id="Capa_2" data-name="Capa 2"><g id="Capa_1-2" data-name="Capa 1"><path class="cls-1" d="M23.45,59.68a2.13,2.13,0,0,0-2.13,2.13v6.4h4.26v-6.4A2.14,2.14,0,0,0,23.45,59.68Zm12.79,0a2.14,2.14,0,1,0,2.13,2.13A2.14,2.14,0,0,0,36.24,59.68Zm7.4-16.86a25.43,25.43,0,0,1-27.6,0A17.85,17.85,0,0,0,0,60.54v1.27a6.4,6.4,0,0,0,6.39,6.4H17.05V59.68a4.26,4.26,0,0,1,4.27-4.26h17a4.25,4.25,0,0,1,4.26,4.26v8.53H53.29a6.4,6.4,0,0,0,6.39-6.4V60.54A17.84,17.84,0,0,0,43.64,42.82ZM23.45,27.71l1.6-4.8,4.79-1.59-4.79-1.6-1.6-4.8-1.6,4.8-4.8,1.6,4.8,1.59Zm-9.6-9.59c0-3,2.87-5.33,6.4-5.33H39.43c3.53,0,6.4,2.38,6.4,5.33v3.2A12.79,12.79,0,0,1,33,34.1h-6.4A12.79,12.79,0,0,1,13.85,21.32ZM8.53,29.84h1.79a21.29,21.29,0,0,0,39,0h1.8a2.14,2.14,0,0,0,2.13-2.13V14.92a2.14,2.14,0,0,0-2.13-2.13h-1.8a21.29,21.29,0,0,0-39,0H8.53a2.14,2.14,0,0,0-2.14,2.13V27.71A2.14,2.14,0,0,0,8.53,29.84Z"/></g></g></svg>