<svg xmlns="http://www.w3.org/2000/svg" xmlns:xlink="http://www.w3.org/1999/xlink" viewBox="0 0 34 34"><defs><style>.cls-1{fill:#fff;}.cls-2{clip-path:url(#clip-path);}</style><clipPath id="clip-path" transform="translate(5 5)"><path class="cls-1" d="M18.89,12.92H16.64v8.32H12.89V12.92H11.44V10.13h1.45V8.34c0-2.34,1-3.72,3.73-3.72h2.79V7.4H17.79c-1.07,0-1.14.4-1.14,1.15v1.57H19.2ZM19.5,0H4.5A4.49,4.49,0,0,0,0,4.5v15A4.49,4.49,0,0,0,4.5,24h15A4.49,4.49,0,0,0,24,19.5V4.5A4.49,4.49,0,0,0,19.5,0Z"/></clipPath></defs><g id="Capa_2" data-name="Capa 2"><g id="Capa_1-2" data-name="Capa 1"><path class="cls-1" d="M18.89,12.92H16.64v8.32H12.89V12.92H11.44V10.13h1.45V8.34c0-2.34,1-3.72,3.73-3.72h2.79V7.4H17.79c-1.07,0-1.14.4-1.14,1.15v1.57H19.2ZM19.5,0H4.5A4.49,4.49,0,0,0,0,4.5v15A4.49,4.49,0,0,0,4.5,24h15A4.49,4.49,0,0,0,24,19.5V4.5A4.49,4.49,0,0,0,19.5,0Z" transform="translate(5 5)"/><g class="cls-2"><rect class="cls-1" width="34" height="34"/></g></g></g></svg>