<svg xmlns="http://www.w3.org/2000/svg" xmlns:xlink="http://www.w3.org/1999/xlink" viewBox="0 0 34 34"><defs><style>.cls-1{fill:#fff;}.cls-2{clip-path:url(#clip-path);}</style><clipPath id="clip-path" transform="translate(5 5)"><path class="cls-1" d="M12,7.12a4.93,4.93,0,1,0,4.92,4.93A4.93,4.93,0,0,0,12,7.12Zm0,0a4.93,4.93,0,1,0,4.92,4.93A4.93,4.93,0,0,0,12,7.12Zm0,0a4.93,4.93,0,1,0,4.92,4.93A4.93,4.93,0,0,0,12,7.12Zm7.73-1.4a1.41,1.41,0,1,1,1.41-1.41A1.41,1.41,0,0,1,19.73,5.72ZM12,18.38a6.33,6.33,0,1,1,6.33-6.33A6.34,6.34,0,0,1,12,18.38ZM20.48,0h-17A3.53,3.53,0,0,0,0,3.52v17A3.52,3.52,0,0,0,3.52,24h17A3.52,3.52,0,0,0,24,20.48v-17A3.53,3.53,0,0,0,20.48,0ZM12,7.12a4.93,4.93,0,1,0,4.92,4.93A4.93,4.93,0,0,0,12,7.12Zm0,0a4.93,4.93,0,1,0,4.92,4.93A4.93,4.93,0,0,0,12,7.12Z"/></clipPath></defs><g id="Capa_2" data-name="Capa 2"><g id="Capa_1-2" data-name="Capa 1"><path class="cls-1" d="M12,7.12a4.93,4.93,0,1,0,4.92,4.93A4.93,4.93,0,0,0,12,7.12Zm0,0a4.93,4.93,0,1,0,4.92,4.93A4.93,4.93,0,0,0,12,7.12Zm0,0a4.93,4.93,0,1,0,4.92,4.93A4.93,4.93,0,0,0,12,7.12Zm7.73-1.4a1.41,1.41,0,1,1,1.41-1.41A1.41,1.41,0,0,1,19.73,5.72ZM12,18.38a6.33,6.33,0,1,1,6.33-6.33A6.34,6.34,0,0,1,12,18.38ZM20.48,0h-17A3.53,3.53,0,0,0,0,3.52v17A3.52,3.52,0,0,0,3.52,24h17A3.52,3.52,0,0,0,24,20.48v-17A3.53,3.53,0,0,0,20.48,0ZM12,7.12a4.93,4.93,0,1,0,4.92,4.93A4.93,4.93,0,0,0,12,7.12Zm0,0a4.93,4.93,0,1,0,4.92,4.93A4.93,4.93,0,0,0,12,7.12Z" transform="translate(5 5)"/><g class="cls-2"><rect class="cls-1" width="34" height="34"/></g></g></g></svg>