<svg xmlns="http://www.w3.org/2000/svg" viewBox="0 0 67.94 50.95"><defs><style>.cls-1{fill:#14023b;}</style></defs><g id="Capa_2" data-name="Capa 2"><g id="Capa_1-2" data-name="Capa 1"><path class="cls-1" d="M28.31,12.74V28.31l3.29-5.48,5,8.74,3-1.85-4.87-8.49h6.29Zm34-7.08A5.66,5.66,0,0,0,56.61,0H11.32A5.66,5.66,0,0,0,5.66,5.66v36.8H62.28ZM56.61,35.38A1.41,1.41,0,0,1,55.2,36.8H12.74a1.42,1.42,0,0,1-1.42-1.42V7.08a1.42,1.42,0,0,1,1.42-1.42H55.2a1.41,1.41,0,0,1,1.41,1.42Zm-17,9.91v1.42a1.41,1.41,0,0,1-1.42,1.41H29.72a1.41,1.41,0,0,1-1.41-1.41V45.29H0v2.83A2.83,2.83,0,0,0,2.83,51H65.11a2.83,2.83,0,0,0,2.83-2.83V45.29Zm21.23,4.6a1.77,1.77,0,1,1,1.77-1.77A1.77,1.77,0,0,1,60.86,49.89Z"/></g></g></svg>