<svg xmlns="http://www.w3.org/2000/svg" xmlns:xlink="http://www.w3.org/1999/xlink" viewBox="0 0 34 34"><defs><style>.cls-1{fill:#fff;}.cls-2{clip-path:url(#clip-path);}</style><clipPath id="clip-path" transform="translate(5 5)"><path class="cls-1" d="M18.33,19H15.52V13.41a1.41,1.41,0,0,0-2.82,0V19H9.89V9.19H12.7v.53a6.12,6.12,0,0,1,2.11-.53,3.68,3.68,0,0,1,3.52,3.73ZM8.48,7.78H5.67V5H8.48ZM8.48,19H5.67V9.19H8.48Zm12-19h-17A3.53,3.53,0,0,0,0,3.52v17A3.53,3.53,0,0,0,3.52,24h17A3.53,3.53,0,0,0,24,20.48v-17A3.53,3.53,0,0,0,20.48,0Z"/></clipPath></defs><g id="Capa_2" data-name="Capa 2"><g id="Capa_1-2" data-name="Capa 1"><path class="cls-1" d="M18.33,19H15.52V13.41a1.41,1.41,0,0,0-2.82,0V19H9.89V9.19H12.7v.53a6.12,6.12,0,0,1,2.11-.53,3.68,3.68,0,0,1,3.52,3.73ZM8.48,7.78H5.67V5H8.48ZM8.48,19H5.67V9.19H8.48Zm12-19h-17A3.53,3.53,0,0,0,0,3.52v17A3.53,3.53,0,0,0,3.52,24h17A3.53,3.53,0,0,0,24,20.48v-17A3.53,3.53,0,0,0,20.48,0Z" transform="translate(5 5)"/><g class="cls-2"><rect class="cls-1" width="34" height="34"/></g></g></g></svg>