<svg xmlns="http://www.w3.org/2000/svg" viewBox="0 0 63.58 63.58"><defs><style>.cls-1{fill:#14023b;}</style></defs><g id="Capa_2" data-name="Capa 2"><g id="Capa_1-2" data-name="Capa 1"><path class="cls-1" d="M63,55,49.14,41.2a2,2,0,0,0-2.89,0l-1.09,1.1-1.39-1.39c-.44.51-.88,1-1.36,1.5s-1,.92-1.5,1.36l1.39,1.39-1.1,1.1a2,2,0,0,0,0,2.88L55,63a2,2,0,0,0,2.88,0l5.06-5A2,2,0,0,0,63,55Z"/><path class="cls-1" d="M47,18l-6.33,5.64a16.83,16.83,0,1,1-.75-4.76l-6.77,6a3.22,3.22,0,0,0-1.7-.5,3.16,3.16,0,0,0-1.56.42l-4-4.13a3.23,3.23,0,1,0-6.26-1.13,3.34,3.34,0,0,0,.21,1.14L16.09,24.7a3.29,3.29,0,0,0-1.26-.25,3.24,3.24,0,1,0,3.25,3.24,3.17,3.17,0,0,0-.32-1.37l3.65-3.84a3.12,3.12,0,0,0,1.46.36,3.29,3.29,0,0,0,1.47-.36l4.07,4.19a3.17,3.17,0,0,0-.18,1,3.24,3.24,0,1,0,6.33-.88l15-13.41a3.31,3.31,0,0,0,1.33.29,3.25,3.25,0,1,0-3-1.95l-2.44,2.18A23.76,23.76,0,1,0,47,18ZM14.83,28.6a.91.91,0,0,1,0-1.82.91.91,0,1,1,0,1.82Zm8-8.08a.92.92,0,0,1,0-1.83.92.92,0,1,1,0,1.83Zm8.59,8.08a.91.91,0,1,1,.92-.91A.91.91,0,0,1,31.46,28.6ZM50.94,9.54a.92.92,0,1,1,0,1.83.92.92,0,0,1,0-1.83Z"/></g></g></svg>